<?xml version="1.0" encoding="UTF-8"?><svg id="R" xmlns="http://www.w3.org/2000/svg" viewBox="0 0 983.03454 1022.87793"><defs><style>.cls-1{fill:#f3ece4;}</style></defs><path class="cls-1" d="m0,987.07651c139.47298,0,159.63799-28.98016,159.63799-199.46032V233.55756C159.63799,63.0774,139.47298,35.80142,0,35.80142V0h443.62632c233.57508,0,361.28577,129.56468,361.28577,288.11103,0,148.31672-109.22548,265.9476-299.11097,286.40534l164.67961,196.05196c99.14223,119.33505,211.73029,204.57589,312.55381,216.50818v35.80142h-277.26617l-332.71956-448.36156h-78.97872v213.09982c0,170.48016,20.165,199.46032,159.63799,199.46032v35.80142H0v-35.80142Zm441.94504-473.9326c146.19589,0,213.41157-100.58301,213.41157-225.03287,0-122.74568-67.21568-225.03363-213.41157-225.03363h-147.87494v450.0665h147.87494Z"/></svg>